<?xml version="1.0"?>
<svg xmlns:rdf="http://www.w3.org/1999/02/22-rdf-syntax-ns#" xmlns="http://www.w3.org/2000/svg" xmlns:cc="http://web.resource.org/cc/" xmlns:dc="http://purl.org/dc/elements/1.1/" xmlns:sodipodi="http://inkscape.sourceforge.net/DTD/sodipodi-0.dtd" xmlns:svg="http://www.w3.org/2000/svg" id="Layer_1" style="enable-background:new 0 0 408.159 159.511" space="preserve" sodipodi:version="0.32" viewBox="0 0 408.159 159.511" version="1.1" sodipodi:docname="igloo.svg" sodipodi:docbase="F:\openclip\svg da inviare">
  <sodipodi:namedview id="base" bordercolor="#666666" borderopacity="1.0" pagecolor="#ffffff"/>
  <g id="g3">
    <path id="path5" d="m269.02 22.152c10.618 8.641 21.67 16.78 30.762 27.113 4.279 4.863 8.463 15.61 13.594 19.388 15.832 11.66 54.516-10.223 65.103 19.174-3.261-3.27-14.674-16.376-20.891-14.596-5.809 1.664-3.165 13.217-5.579 18.745 0.981-16.436 4.362-17.795-9.731-19.888-2.252-0.334-7.594 3.227-9.729 4.72 0.505-0.762 1.139-1.66 2.29-3.004-34.599 3.595-91.149-2.67-99.873 41.924 13.336-1.233 78.909-0.104 78.982-15.453-0.471 4.173 7.181 15.757 13.45 13.735 4.512-1.454 6.292-14.293 11.303-17.886 17.772-12.742 33.522 3.645 32.193 21.606 24.435-0.611 4.943-18.325 12.448-21.318 2.469-0.984 7.75 33.983 8.014 34.911 2.668 9.374 9.049 17.86 16.023 24.18 2.794 2.531-2.635 3.823-4.435-3.433-8.153 16.338-5.088-3.695-10.731-5.438-10.179-3.143-14.666 11.652-26.757 8.585 4.751-3.404 6.068-20.605-0.715-14.881-2.913-1.07-4.205-0.939-7.87-0.573 3.333 0.485 6.209 1.506 10.016 1.289v0.572c-4.338-0.372-10.069 0.313-13.163 1.86 3.828 0.05 7.188 1.003 11.446 1.002-3.143 0.321-5.932 1.609-8.012 2.146 2.4 0.061 5.837 0.798 7.583 1.001-3.711 0.518-4.863 1.838-7.583 3.006 2.587 0.172 7.269 1.08 8.585 1.144-4.839-0.621-9.735-0.192-14.309 1.289 2.856 0.26 6.892 1.257 9.158 1.431-12.682-1.145-18.132 4.282-27.759 3.435-5.893-0.519-11.963-7.166-18.887-1.004 3.298-5.657 9.399-6.432 14.451-2.146 3.956-18.463 5.475-41.22-15.023-45.214-12.491-2.434-32.758-0.856-37.774 10.874-2.733 6.392-2.268 25.091 0.858 28.904-0.038-0.004-0.574 0.565-0.571 0.571-0.968-0.302-4.752-2.229-5.724-2.861-0.22 0.113 3.141-2.447 2.861-1.145 0.334-6.757 2.003-14.792 1.145-21.463-2.313-17.976-10.932-10.48-29.862-8.337-14.39 1.63-9.625 10.916-12.775 20.213-1.92-20.173-7.489-17.951-29.046-18.314-12.405-0.209-51.24-5.434-60.238 2.289-4.377 3.757-3.474 9.483-3.792 14.81-0.879 14.757-0.311 10.614 9.229 12.519 6.668 1.331 13.955-3.252 20.031 2.434 4.27-5.915 11.582-5.088 17.17-3.864-0.144 1.126-0.457 3.576-0.715 4.437-5.52-5.322-15.409-4.083-14.737 4.578-3.001-5.503-14.322-10.675-16.168-0.43h-2.719c0.047-7.895-7.965-5.702-11.731-0.285 1.409-13.159-9.318-2.654-14.595-1.002-2.42 0.758-5.903 0.005-11.446 1.287-2.619-7.604-12.178-5.303-12.735 1.431-1.888-4.678-6.905-6.965-11.733-5.579 9.153-5.752 24.295-0.574 34.34 1.431 1.992-3.674 4.463-4.083 7.584-6.439 5.457-4.119 6.369 2.92 6.915-6.428 0.182-3.11 2.687-14.228 0.668-16.751-5.63-7.04-30.217-1.173-39.634-0.285-10.966 1.034-48.278-0.035-38.204 20.031-0.158-0.315-0.434 3.374-0.429 3.72 7.401-5.087 8.476 1.632 14.022 2.004 5.185 0.348 8.956-5.922 13.021 0-5.738-2.615-11.107-0.332-13.593 4.435-1.704-8.102-11.432-7.421-16.598-1.717 2.359-6.234 0.689-10.774-6.295-9.872 0.68-5.991-1.825-6.699-7.154-4.865 10.28-16.229-18.525-14.506-13.307 0.715-5.456-1.413-8.123 1.248-7.297 6.868-4.84 0.158-9.134 3.033-10.588 8.298 1.53 0.909 1.248 0.579 2.432 1.718-0.033 0.009-0.503 0.196-0.429 0.286-1.369 0.295-1.208-0.757-1.717-1.717-10.718 6.56 12.19-20.563 15.167-24.324 1.479-1.869 6.493-4.033 7.297-5.579 3.387-6.51 4.124-17.367 6.09-25.68 4.257-17.996 15.28-35.704 27.391-49.439 51.925-58.894 136.04-56.837 201.04-24.909"/>
    <path id="path7" fill="#fff" d="m235.25 9.275c-38.168-0.657-76.344 0.467-114.32 4.436 36.37-15.107 76.81-15.451 114.32-4.436"/>
    <path id="path9" fill="#fff" d="m235.68 11.993c3.352 8.723 2.255 18.969 5.008 26.899 1.23-4.178-3.319-25.31-1.86-26.612 8.934-7.977 47.404 26.512 54.229 33.051-63.343-7.482-126.32-5.697-189.58 1.717 1.572-10.382 5.022-21.106 11.303-29.618-12.243 5.56-6.808 29.421-20.174 30.906-9.871 1.096-19.475 1.769-27.615 4.865 20.001-25.451 43.877-36.852 75.119-39.49 9.07-0.767 26.89-6.668 26.89 4.578 0 6.828-1.409 14.442 0.429 20.461 2.178-7.512 1.448-17.075 1.678-25.33 0.076-2.753 16.066-2.083 19.356-2.142 15.07-0.268 30.15 0.084 45.21 0.715"/>
    <path id="path11" fill="#fff" d="m207.2 42.327c3.51 4.371 6.345 25.276 2.718 30.762-3.856 5.833-62.813 11.58-69.68 6.581-5.901-4.296-5.689-26.566 0-32.622 9.81-10.436 52.49-4.252 66.96-4.721"/>
    <path id="path13" fill="#fff" d="m271.16 45.761c1.261 4.164 2.006 26.401 4.006 27.758 1.96 1.331-0.606-24.034-1.717-27.615 21.891 0.241 29.379 9.076 39.49 27.9-23.044 2.771-44.244 5.013-67.034 4.364-8.042-0.229-29.518 3.058-33.981-2.933-1.879-2.522-0.878-28.998 1.216-31.191 7.39-7.755 48.09 0.002 58.01 1.717"/>
    <path id="path15" fill="#fff" d="m137.09 47.048c-1.604 18.627 2.115 31.91-18.314 34.483-6.987 0.88-50.619 8.528-49.936 1.36 0.59-6.191 0.452-14.013 2.862-19.817 5.553-13.376 14.259-11.119 29.332-13.307 10.34-1.502 25.92-7.018 36.05-2.719"/>
    <path id="path17" fill="#fff" d="m71.418 54.489c-1.082 6.386-1.313 25.982-5.008 30.62-4.477 5.62-14.193 5.055-20.604 6.581 3.121-11.573 12.442-36.436 25.612-37.201"/>
    <path id="path19" d="m328.68 79.67c-4.586 4.254-8.555 10.376-12.733 13.308 2.64-5.933 7.33-11.919 12.73-13.308"/>
    <path id="path21" fill="#fff" d="m259 80.816c-10.363 5.856-18.308 14.721-23.322 25.469-3.321 7.115-0.807 11.193-9.372 11.086-13.713-0.172-27.425-0.344-41.138-0.516-19.375-0.243-9.841-17.789-13.019-31.461 0-0.002-0.423 0.013-0.429 0-0.724 6.453 2.037 19.671-0.859 25.183-6.029 11.476-37.6 7.349-51.366 8.441-31.414 2.493-20.285-4.795-21.893-30.763-4.768 12.41 3.722 31.291-12.59 33.84-13.996 2.188-34.785 8.275-44.069-0.216-1.659-23.737 4.722-28.468 27.257-32.335 21.375-3.668 38.005-5.25 59.165-7.012 43.5-3.615 86.01-2.801 131.64-1.707"/>
    <path id="path23" d="m381.19 90.259c-1.391 0.434-0.506 2.747-2.575 1.288 0.3-3.146 1.39-0.921 2.57-1.288"/>
    <path id="path25" fill="#fff" d="m352.29 95.124c-0.782 1.914 1.595 3.838-2.575 3.434-0.96-4.457 2.1-2.284 2.57-3.434"/>
    <path id="path27" fill="#fff" d="m355.86 95.124c-1.24 1.08-2.32 2.017 0 0"/>
    <path id="path29" fill="#fff" d="m347.57 95.409c-1.95 1.912-1.82 1.779 0 0"/>
    <path id="path31" fill="#fff" d="m360.02 97.986c-0.975-0.817-3.142 3.189-2.146-2.577 2.49 0.339 1.29 1.859 2.15 2.577"/>
    <path id="path33" fill="#fff" d="m363.74 97.986c-3.11-1.217-2.18-0.853 0 0"/>
    <path id="path35" fill="#fff" d="m354.86 98.558c2.26-0.64 1.38-0.391 0 0"/>
    <path id="path37" fill="#fff" d="m343.42 103.28c1.34-1.978 0.331-4.405 4.148-2.718-1.39 0.91-2.77 1.81-4.15 2.72"/>
    <path id="path39" fill="#fff" d="m352.29 100.56c-1.192 1.285 0.593 3.65-2.862 2.575 0.08-2.68 2.03-1.69 2.86-2.58"/>
    <path id="path41" fill="#fff" d="m356.15 100.56c-2.11 1.01-2.53 1.21 0 0"/>
    <path id="path43" fill="#fff" d="m359.59 103.28c-0.652-1.044-2.615 0.335-1.718-2.718 3.49-0.56 0.7 1.1 1.72 2.72"/>
    <path id="path45" fill="#fff" d="m363.74 103.71c-0.745-1.354-2.938 0.108-2.003-3.148 3.31-0.52 0.98 1.31 2 3.15"/>
    <path id="path47" fill="#fff" d="m367.31 103.28c-0.876-0.209-2.017 1.984-1.717-1 0.36-3.566 0.9 0.8 1.72 1"/>
    <path id="path49" fill="#fff" d="m341.42 102.85c-3.2-1.16-0.32-0.11 0 0"/>
    <path id="path51" fill="#fff" d="m336.98 106.57c0.14-0.74 0.36-1.87 0 0"/>
    <path id="path53" fill="#fff" d="m347.57 105c-2.353 0.98-3.721 4.171-4.148 0h4.15"/>
    <path id="path55" fill="#fff" d="m349.71 107.43c0.583-0.502 1.082-1.886 2.29-2.431 1.5 3.65-0.89 1.23-2.29 2.43"/>
    <path id="path57" fill="#fff" d="m356.58 106c-3.12-0.46-2.34-0.35 0 0"/>
    <path id="path59" fill="#fff" d="m360.02 106.43c0.429 0.183-2.477 2.865-1.932-0.216 0.53-3.05 1.13-0.12 1.93 0.22"/>
    <path id="path61" fill="#fff" d="m363.74 107.72c-1.273-1.066-2.595 0.803-2.003-2.29 3.2-0.72 0.81 1.3 2 2.29"/>
    <path id="path63" fill="#fff" d="m368.6 107.43c-2.023-0.49-3.563 1.895-3.148-2.003 3.17-0.91 2.06 1.73 3.15 2"/>
    <path id="path65" fill="#fff" d="m339.98 107.14c2.44-0.62 1.57-0.4 0 0"/>
    <path id="path67" fill="#fff" d="m341.42 109.15c-2.32 0.81-3.06 1.07 0 0"/>
    <path id="path69" fill="#fff" d="m348 110.43c-0.95-0.03-2.791 1.513-4.577 1.146 1.62-3.78 3.06-1.2 4.58-1.15"/>
    <path id="path71" fill="#fff" d="m356.15 111.86c-0.776-1.126-2.973 0.759-2.003-2.718 3.22-0.61 0.94 1.19 2 2.72"/>
    <path id="path73" fill="#fff" d="m360.02 111.86c-0.896-1.195-3.13 0.892-2.146-2.718 3.39-0.69 1.01 1.21 2.15 2.72"/>
    <path id="path75" fill="#fff" d="m364.02 110.86c-0.401-0.262-2.271 2.819-2.289-1.717 2.3-0.45 1.35 1.11 2.29 1.72"/>
    <path id="path77" fill="#fff" d="m369.17 110.43c-0.04 0.004-1.134 2.075-3.722 1.431 0.94-4.62 2.2-1.29 3.72-1.43"/>
    <path id="path79" fill="#fff" d="m349.71 111.86c3.79-1.24 3.32-1.08 0 0"/>
    <path id="path81" fill="#fff" d="m341.7 113.58c-1.238 0.201-2.29 3.984-2.29 0.929 0-2.38 1.01-0.72 2.29-0.93"/>
    <path id="path83" fill="#fff" d="m347.57 115.16c-0.685-0.084-2.789 1.142-4.148 0.857 3.24-3.11 3.94-0.89 4.15-0.86"/>
    <path id="path85" fill="#fff" d="m352.29 115.01c1.572 0.946-1.943 0.452-1.574 0.857 0.003 0.08 1.232-1.498 1.289-1.573-1.394-1.055-1.852-0.325-2.72-1.003 2.99-0.61 2.31 1.28 3 1.71"/>
    <path id="path87" fill="#fff" d="m356.58 116.01c-1.111-1.266-3.539 1.085-2.146-2.719 3.29-0.31 0.99 1.39 2.15 2.72"/>
    <path id="path89" fill="#fff" d="m360.02 116.01c-0.991-1.153-3.033 0.971-2.146-2.431 3.28-0.74 1.03 1.13 2.15 2.43"/>
    <path id="path91" fill="#fff" d="m364.02 115.16c-0.381-0.219-2.156 3.122-2.289-1.573 2.32-0.25 1.78 1.27 2.29 1.57"/>
    <path id="path93" fill="#fff" d="m369.17 116.73h-3.722c0.7-5.59 1.76-1.18 3.72 0"/>
    <path id="path95" fill="#fff" d="m336.26 115.73c1.9-2.16 0.88-1 0 0"/>
    <path id="path97" d="m313.23 115.01c-2.16 1.37-1.27 0.8 0 0"/>
    <path id="path99" fill="#fff" d="m341.7 117.73c-0.654 0.5-1.041 1.917-2.29 2.433-0.52-2.74 1.11-1.53 2.29-2.43"/>
    <path id="path101" fill="#fff" d="m348 119.73c-1.271-0.112-2.961 1.263-4.577 1.146 2.95-4.24 3.63-1.23 4.58-1.15"/>
    <path id="path103" fill="#fff" d="m352.29 121.16c-1.899-1.676-4.09 1.555-3.005-3.433h3.435c0 0.06-0.18 3.66-0.43 3.43"/>
    <path id="path105" fill="#fff" d="m356.15 117.73c-0.444 2.08 2.197 3.446-2.003 3.433-1-3.41 1.89-2.9 2-3.43"/>
    <path id="path107" fill="#fff" d="m360.02 120.88c-0.852-1.007-3.809 0.173-1.002-3.292 1.95 0.95 0.26 2.42 1 3.29"/>
    <path id="path109" fill="#fff" d="m364.02 118.45c-0.966 1.706 1.371 3.428-2.289 2.718-1.51-5.92 1.55-1.41 2.29-2.72"/>
    <path id="path111" fill="#fff" d="m385.05 118.45c0.408 6.385 3.643 18.171 1.289 24.181-3.492 8.919-12.101 12.656-15.454 4.149-5.54-14.06-0.49-29.9 14.16-28.33"/>
    <path id="path113" fill="#fff" d="m369.17 121.16h-3.722c0.096-0.906 0.191-1.812 0.287-2.718 4.58-1.24 1.92 1.65 3.43 2.72"/>
    <path id="path115" fill="#fff" d="m337.26 120.45c-2.62-1.28-0.82-0.41 0 0"/>
    <path id="path117" fill="#fff" d="m341.7 122.6c0.198-0.121-0.869 1.684-2.29 2.003-0.65-2.92 0.87-1.14 2.29-2"/>
    <path id="path119" fill="#fff" d="m348 123.88c0.318-0.017-3.091 1.356-4.577 1.002 2.13-2.1 3.57-0.94 4.58-1"/>
    <path id="path121" fill="#fff" d="m352.72 124.31c-1.184-0.383-1.959-0.884-3.435 0 1.68-3.95 2.17-0.41 3.44 0"/>
    <path id="path123" fill="#fff" d="m356.58 124.74c-1.286-1.101-3.241 1.353-2.432-2.146 3.46-0.6 1.39 1.26 2.43 2.15"/>
    <path id="path125" fill="#fff" d="m360.59 124.74c-1.536-1.096-3.485 1.439-2.72-2.146 3.32-0.59 1.55 1.32 2.72 2.15"/>
    <path id="path127" fill="#fff" d="m363.74 122.6c-0.438 1.944 1.814 3.425-2.003 3.005-0.55-2.69 1.91-2.64 2-3"/>
    <path id="path129" d="m312.22 156.51c-4.879-0.661-13.906-5.926-18.743 3.004-0.405-0.253-0.787-0.539-1.145-0.858 3.614-12.357-14.036-6.996-17.885-1.431 0.961-9.457 15.736-11.98 20.889-2.719 5.646-4.165 12.157-2.317 14.882 1.716 1.963-10.657 0.785-22.367 1.286-33.337 3.94 7.16 0.91 24.02 0.7 33.63"/>
    <path id="path131" fill="#fff" d="m369.17 125.31c-2.279-0.703-3.9 2.153-3.722-2.432 4.23-1.21 2.75 2.13 3.72 2.43"/>
    <path id="path133" fill="#fff" d="m337.7 124.31c-2.29 0.21-1.05 0.1 0 0"/>
    <path id="path135" fill="#fff" d="m335.98 126.46c-2.48-0.11-0.62-0.03 0 0"/>
    <path id="path137" fill="#fff" d="m342.13 128.61c-3.26-3.37-1.57-1.63 0 0"/>
    <path id="path139" fill="#fff" d="m343.85 127.75c1.11-1.33 1.82-2.17 0 0"/>
    <path id="path141" fill="#fff" d="m352.29 126.46c-1.309 0.504-1.652 1.373-3.005 1.573 0.56-2.07 1.61-1.03 3.01-1.57"/>
    <path id="path143" fill="#fff" d="m356.58 129.03c-1.224-1.224-3.305 1.141-2.432-2.432 3.57-0.87 1.21 1.21 2.43 2.43"/>
    <path id="path145" fill="#fff" d="m360.3 129.03c-1.214-1.229-3.308 1.147-2.433-2.432 2 0.4 1.66 1.66 2.43 2.43"/>
    <path id="path147" fill="#fff" d="m364.02 127.32c-0.755 1.088 1.636 2.454-2.002 1.716-1.51-3.94 1.05-0.35 2-1.72"/>
    <path id="path149" fill="#fff" d="m369.17 128.61c-1.24 0.143-2.481 0.285-3.722 0.428 1.6-3.48 2.54-0.74 3.72-0.43"/>
    <path id="path151" fill="#fff" d="m59.113 128.61c0.357 4.008-0.484 8.422-0.715 12.447-5.676-5.24-20.07-16.46 0.715-12.45"/>
    <path id="path153" fill="#fff" d="m346.56 128.61c1.7-0.26 1.77-0.27 0 0"/>
    <path id="path155" fill="#fff" d="m337.7 130.46c-1.104 0.652-0.517 2.006-3.148 1.288 0.04-2.89 1.42-0.27 3.15-1.29"/>
    <path id="path157" fill="#fff" d="m343.85 131.47c1.04-0.84 2.54-2.05 0 0"/>
    <path id="path159" fill="#fff" d="m352.72 131.47c-0.898-0.058-2.169 0.961-3.435 0.716-0.123-0.374-0.171-0.756-0.143-1.146 1.95-1.23 2.98 0.39 3.58 0.43"/>
    <path id="path161" fill="#fff" d="m357.15 131.47c-0.483-0.008-0.528 1.463-2.72 1.001-0.065-0.672 0.137-0.809-0.143-1.573 1.16-0.77 1.8 0.55 2.86 0.57"/>
    <path id="path163" fill="#fff" d="m369.17 130.75c-0.105 0.017-1.206 2.529-4.008 1.716 0.29-2.84 1.71-1.36 4.01-1.72"/>
    <path id="path165" fill="#fff" d="m360.59 132.04c-1.563-0.465-2.7 2.306-2.72-1.286 2.01-0.32 2.29 1.16 2.72 1.29"/>
    <path id="path167" fill="#fff" d="m364.31 132.47c-1.389-1.313-3.241 2.06-2.576-1.716 2.39-0.37 1.77 0.96 2.58 1.72"/>
    <path id="path169" fill="#fff" d="m342.13 132.04c-2.88-1.02 0.31 0.11 0 0"/>
    <path id="path171" fill="#fff" d="m348 132.04c-3.13-1.02 0.3 0.1 0 0"/>
    <path id="path173" fill="#fff" d="m391.92 144.92c-5.571-0.913-5.817-6.021-3.863-12.019 4.48 3.21 4.12 6.7 3.86 12.02"/>
    <path id="path175" fill="#fff" d="m348 133.9c-1.401 0.644-2.615 1.86-4.148 2.433v-2.433h4.15"/>
    <path id="path177" fill="#fff" d="m352.29 133.9c-1.117 1.702 3.165 4.142-3.005 3.004 0.39-2.35 2.13-1.66 3.01-3"/>
    <path id="path179" fill="#fff" d="m356.58 133.9c-0.709 1.202 0.413 2.118-0.429 3.435-3.99-2.73-0.46-1.93 0.43-3.44"/>
    <path id="path181" fill="#fff" d="m337.7 134.18c-1.016 0.696-1.504 1.959-3.148 2.146 0.76-1.7 1.89-1.29 3.15-2.15"/>
    <path id="path183" fill="#fff" d="m360.59 135.19c0.561 0.041 1.498 0.041 3.861-0.573v2.72c-2.193-0.144-4.388-0.287-6.581-0.431 0.71-5.15 1.54-1.48 2.72-1.72"/>
    <path id="path185" fill="#fff" d="m369.17 137.33c-1.336-0.144-2.672-0.287-4.008-0.431v-2.289c4.88-1.39 2.47 1.69 4.01 2.72"/>
    <path id="path187" fill="#fff" d="m342.13 134.76c-1.139 1.281 0.415 3.036-2.719 2.146 0.66-1.31 1.85-1.17 2.72-2.15"/>
    <path id="path189" d="m242.12 142.48c-1.333 1.411-2.624 2.452-4.722 3.004 0.88-1.041 2.112-1.77 3.006-2.718-4.564-8.999-14.972 0.235-21.893-2.433 6.91-0.71 19.31-8.4 23.6 2.15"/>
    <path id="path191" fill="#fff" d="m337.7 139.76c-1.366-0.286-2.201 0.787-3.292-0.284 1.91-1.81 2.39 0.1 3.29 0.28"/>
    <path id="path193" fill="#fff" d="m348 138.62c-1.852 1.134-2.157 3.651-4.148 0h4.15"/>
    <path id="path195" fill="#fff" d="m356.58 140.34c-1.345-0.783-2.766 1.55-2.432-1.716 2.94-0.86 1.39 1.11 2.43 1.72"/>
    <path id="path197" fill="#fff" d="m352.72 140.34c-4.25-1.32-0.24-0.08 0 0"/>
    <path id="path199" d="m216.36 141.05c-1.02 0.945-0.582 2.318-2.431 2.719-0.057-0.151-0.286-0.366-0.431-0.431 0.048-0.143 0-0.19-0.143-0.143 0.68-1.92 2.37-1.56 3-2.15"/>
    <path id="path201" d="m233.24 141.34c-2.24 0.32-2.34 0.33 0 0"/>
    <path id="path203" d="m193.9 143.2c-2.28-0.18-2.06-0.16 0 0"/>
    <path id="path205" fill="#fff" d="m340.7 142.06c-0.95 1.99-0.44 0.9 0 0"/>
    <path id="path207" fill="#fff" d="m348 143.49c-4.38-1.73-0.65-0.26 0 0"/>
    <path id="path209" fill="#fff" d="m352.72 143.49c-1.98-0.742-3.421 1.49-3.435-1.431 2.72-0.79 2.79 1.18 3.44 1.43"/>
    <path id="path211" fill="#fff" d="m336.26 143.2c2.44-0.62 1.57-0.4 0 0"/>
    <path id="path213" d="m190.6 143.63c-2.71-0.13-2.34-0.11 0 0"/>
    <path id="path215" d="m199.91 144.92c3.798 2.15 4.701 4.977 9.587 3.006-0.114 3.151-0.582 4.044-2.289 6.15-4.61-4.577 0.515-3.153-4.722-1.287-0.933-3.809-4.683-8.383-7.011-10.016 1.37 0.64 3.1 1.47 4.43 2.15"/>
    <path id="path217" d="m247.84 144.2c-1.626 0.132-1.674 1.911-3.577 0.287 2-1.61 3.11-0.25 3.58-0.29"/>
    <path id="path219" d="m186.89 144.2c-1.69 1.34-1.73 1.38 0 0"/>
    <path id="path221" d="m211.64 146.63c-0.89-1.82-1.45-2.97 0 0"/>
    <path id="path223" d="m47.094 146.63c-1.625-2.08-1.317-1.69 0 0"/>
    <path id="path225" d="m235.96 146.92c-1.21-1.57-1.76-2.27 0 0"/>
    <path id="path227" d="m28.78 145.34c-0.768 0.705 0.167 2.407-2.003 1.573 0.001-0.169-0.126-0.179-0.287-0.285 0.681-1.36 2.067-1.07 2.29-1.28"/>
    <path id="path229" d="m266.44 145.2c-1.107 0.563-1.048 2.438-3.291 1.573 0.042-0.108-0.092-0.521-0.143-0.572 1.04-0.8 2.89-0.72 3.43-1"/>
    <path id="path231" fill="#fff" d="m337.98 145.2c-1.237 0.301-1.959 1.002-3.434 0.716 0.77-1.43 1.71-0.3 3.43-0.72"/>
    <path id="path233" fill="#fff" d="m348 146.63c-2.32-0.692-3.827 1.505-4.148-1.431 2.7-0.75 3.65 1.29 4.15 1.43"/>
    <path id="path235" fill="#fff" d="m350 145.78c0.25-0.28 1.35-1.52 0 0"/>
    <path id="path237" fill="#fff" d="m356.87 145.34c-0.293 0.065-0.513 1.935-2.718 1.288 0.57-1.7 1.53-1.02 2.72-1.29"/>
    <path id="path239" d="m42.658 146.2c-2.2 1.48-1.303 0.88 0 0"/>
    <path id="path241" d="m50.528 148.21c-0.281-0.887-2.335-0.474-0.572-2.288 2.19 0.81 0.35 1.58 0.572 2.29"/>
    <path id="path243" d="m233.24 146.2c-1.07 2.13-1.2 2.37 0 0"/>
    <path id="path245" d="m260.43 146.63c-1.114 0.786-1.013 2.105-2.861 2.289-0.01-0.121-0.133-0.241-0.286-0.285 0.63-2.3 2-1.2 3.15-2.01"/>
    <path id="path247" d="m22.77 148.64c-1.491-1.4-2.457-2.31 0 0"/>
    <path id="path249" d="m34.073 148.64c-0.826-0.833-2.624 0.691-1.431-1.861 2.178-0.97 0.547 0.97 1.431 1.86"/>
    <path id="path251" d="m253.13 148.64c-0.574-0.359-1.584 1.594-2.002-1.431 2.03-1.43 0.84 0.7 2 1.43"/>
    <path id="path253" d="m236.82 147.78c-0.462 1.324 1.248 2.424-1.574 2.862 0.06-1.44 1.27-1.98 1.57-2.86"/>
    <path id="path255" fill="#fff" d="m345.56 148.21c-1.46 0.69-2.71 1.29 0 0"/>
    <path id="path257" fill="#fff" d="m355.86 148.21c-3.466 0.898-5.746 2.938-10.016 2.146 4.03-1.01 5.08-1.38 10.02-2.15"/>
    <path id="path259" d="m38.509 149.35c-1.797 1.791-1.69 2.541-4.006 3.72-0.001 0.056-0.858-1.063-0.715-1.002 1.33-1.46 4.283-2.39 4.721-2.72"/>
    <path id="path261" d="m18.907 149.64c-0.647 1.196 0.778 2.783-1.145 2.146-0.978-1.79 0.725-1.37 1.145-2.15"/>
    <path id="path263" d="m52.96 150.64c-2.267 0.63-1.736 0.48 0 0"/>
    <path id="path265" d="m230.67 150.35c-0.97 2.62-0.44 1.19 0 0"/>
    <path id="path267" d="m253.56 152.79c-1.111 0.281-2.414 1.816-3.433 2.433 0.92-4.04 2.98-2.32 3.43-2.43"/>
    <path id="path269" d="m235.25 152.07c-1.135 0.714-1.994 3.108-4.722 2.575 0.061-0.064-0.131-0.565-0.143-0.573 1.46-0.42 3.4-1.08 4.86-2"/>
    <path id="path271" fill="#fff" d="m349.28 152.07c-1.911 0.413-2.606 1.817-4.149 0h4.15"/>
    <path id="path273" d="m16.903 153.5c-2.279 0.9-1.35 0.54 0 0"/>
    <path id="path275" d="m90.019 155.79c-0.709-0.86-2.514-3.04 0 0"/>
    <path id="path277" fill="#fff" d="m398.65 155.22c-2.95-0.69-0.21-0.05 0 0"/>
    <path id="path279" d="m4.599 153.79c-0.961 1.083-0.274 2.287-2.146 2.72-0.537-2.57 1.18-1.63 2.146-2.72"/>
    <path id="path281" d="m1.165 156.93c-1.44 1.74-1.663 2.01 0 0"/>
  </g>
  <metadata>
    <rdf:RDF>
      <cc:Work>
        <dc:format>image/svg+xml</dc:format>
        <dc:type rdf:resource="http://purl.org/dc/dcmitype/StillImage"/>
        <cc:license rdf:resource="http://creativecommons.org/licenses/publicdomain/"/>
        <dc:publisher>
          <cc:Agent rdf:about="http://openclipart.org/">
            <dc:title>Openclipart</dc:title>
          </cc:Agent>
        </dc:publisher>
        <dc:title>Architetto -- igloo</dc:title>
        <dc:date>2010-03-09T18:29:44</dc:date>
        <dc:description>An igloo by Francesco 'Architetto' Rollandin. From OCAL 0.18 release.</dc:description>
        <dc:source>http://openclipart.org/detail/30649/architetto----igloo-by-anonymous</dc:source>
        <dc:creator>
          <cc:Agent>
            <dc:title>Anonymous</dc:title>
          </cc:Agent>
        </dc:creator>
        <dc:subject>
          <rdf:Bag>
            <rdf:li>building</rdf:li>
            <rdf:li>clip art</rdf:li>
            <rdf:li>clipart</rdf:li>
            <rdf:li>home</rdf:li>
            <rdf:li>house</rdf:li>
            <rdf:li>igloo</rdf:li>
            <rdf:li>snow</rdf:li>
            <rdf:li>winter</rdf:li>
          </rdf:Bag>
        </dc:subject>
      </cc:Work>
      <cc:License rdf:about="http://creativecommons.org/licenses/publicdomain/">
        <cc:permits rdf:resource="http://creativecommons.org/ns#Reproduction"/>
        <cc:permits rdf:resource="http://creativecommons.org/ns#Distribution"/>
        <cc:permits rdf:resource="http://creativecommons.org/ns#DerivativeWorks"/>
      </cc:License>
    </rdf:RDF>
  </metadata>
</svg>
